<svg xmlns="http://www.w3.org/2000/svg"  viewBox="0 0 100 100" width="100px" height="100px"><circle cx="13" cy="29" r="2" fill="#ee3e54"/><circle cx="77" cy="13" r="1" fill="#f1bc19"/><circle cx="50" cy="50" r="37" fill="#fce0a2"/><circle cx="83" cy="15" r="4" fill="#f1bc19"/><circle cx="87" cy="24" r="2" fill="#ee3e54"/><circle cx="81" cy="76" r="2" fill="#fbcd59"/><circle cx="15" cy="63" r="4" fill="#fbcd59"/><circle cx="25" cy="87" r="2" fill="#ee3e54"/><circle cx="19.5" cy="54.5" r="2.5" fill="#fff"/><circle cx="21" cy="67" r="1" fill="#f1bc19"/><circle cx="80" cy="34" r="1" fill="#fff"/><path fill="#1fab00" d="M66.719,73H35.281C31.26,73,28,69.74,28,65.719V34.281C28,30.26,31.26,27,35.281,27h31.438 C70.74,27,74,30.26,74,34.281v31.438C74,69.74,70.74,73,66.719,73z"/><path fill="#94e201" d="M66.271,27H51H35.729C31.46,27,28,30.46,28,34.729V50c4,9,14,7,23,0c9,7,19,9,23,0V34.729 C74,30.46,70.54,27,66.271,27z"/><path fill="#472b29" d="M65.157,56.519c-4.143,0-9.139-2.057-14.157-5.887c-6.14,4.687-12.245,6.715-16.797,5.577 c-2.98-0.748-5.221-2.769-6.66-6.005C27.515,50.139,27.5,50.07,27.5,50V34.729c0-4.538,3.691-8.229,8.229-8.229h30.542 c4.538,0,8.229,3.691,8.229,8.229V50c0,0.07-0.015,0.139-0.043,0.203c-1.438,3.236-3.679,5.257-6.66,6.005 C66.966,56.416,66.083,56.519,65.157,56.519z M51,49.5c0.108,0,0.217,0.035,0.307,0.105c5.998,4.664,11.918,6.716,16.247,5.632 c2.638-0.661,4.638-2.459,5.946-5.344V34.729c0-3.986-3.243-7.229-7.229-7.229H35.729c-3.986,0-7.229,3.243-7.229,7.229v15.164 c1.308,2.885,3.308,4.683,5.946,5.344c4.326,1.085,10.25-0.966,16.247-5.632C50.783,49.535,50.892,49.5,51,49.5z M74,50h0.01H74z"/><path fill="#472b29" d="M66.719,73.7H35.281c-4.401,0-7.981-3.58-7.981-7.981V34.281c0-4.401,3.581-7.981,7.981-7.981 h31.438c4.401,0,7.981,3.581,7.981,7.981v31.438C74.7,70.12,71.12,73.7,66.719,73.7z M35.281,27.7 c-3.629,0-6.581,2.952-6.581,6.581v31.438c0,3.629,2.952,6.581,6.581,6.581h31.438c3.629,0,6.581-2.952,6.581-6.581V34.281 c0-3.629-2.952-6.581-6.581-6.581H35.281z"/><ellipse cx="51" cy="53" fill="#ef9922" rx="4" ry="6"/><path fill="#472b29" d="M51,59.25c-2.343,0-4.25-2.804-4.25-6.25s1.907-6.25,4.25-6.25s4.25,2.804,4.25,6.25 S53.343,59.25,51,59.25z M51,47.25c-2.068,0-3.75,2.58-3.75,5.75c0,3.171,1.682,5.75,3.75,5.75s3.75-2.579,3.75-5.75 C54.75,49.83,53.068,47.25,51,47.25z"/><g><ellipse cx="39" cy="41.5" fill="#fff" rx="6.5" ry="8"/></g><g><path fill="#1f212b" d="M39,37.458c-0.405,0-0.791,0.125-1.144,0.346c0.432,0.33,0.715,0.864,0.715,1.471 c0,1.003-0.768,1.817-1.714,1.817c-0.273,0-0.528-0.074-0.758-0.195C36.041,41.252,36,41.617,36,42c0,2.508,1.343,4.542,3,4.542 s3-2.034,3-4.542S40.657,37.458,39,37.458z"/></g><g><ellipse cx="63" cy="41.5" fill="#fff" rx="6.5" ry="8"/></g><g><path fill="#472b29" d="M44.506,46.003c-0.039,0-0.077-0.009-0.114-0.027c-0.123-0.063-0.172-0.213-0.109-0.336 c0.632-1.238,0.966-2.669,0.966-4.14c0-4.273-2.804-7.75-6.25-7.75c-1.146,0-2.266,0.388-3.241,1.123 c-0.11,0.082-0.267,0.062-0.35-0.049c-0.083-0.11-0.061-0.267,0.049-0.35c1.062-0.8,2.287-1.224,3.542-1.224 c3.722,0,6.75,3.701,6.75,8.25c0,1.549-0.353,3.059-1.021,4.367C44.685,45.954,44.597,46.003,44.506,46.003z"/></g><g><path fill="#472b29" d="M32.5,41.75c-0.138,0-0.25-0.112-0.25-0.25c0-2.019,0.602-3.962,1.695-5.47 c0.082-0.113,0.239-0.135,0.349-0.056c0.112,0.081,0.137,0.238,0.056,0.349c-1.032,1.424-1.601,3.263-1.601,5.177 C32.75,41.638,32.638,41.75,32.5,41.75z"/></g><g><path fill="#472b29" d="M39,49.75c-2.998,0-5.594-2.353-6.461-5.854c-0.033-0.134,0.048-0.27,0.183-0.303 c0.134-0.034,0.27,0.048,0.303,0.183C33.835,47.05,36.236,49.25,39,49.25c1.513,0,2.973-0.68,4.112-1.916 c0.094-0.102,0.252-0.108,0.353-0.014c0.102,0.093,0.108,0.251,0.014,0.353C42.245,49.013,40.654,49.75,39,49.75z"/></g><g><path fill="#472b29" d="M63,49.75c-3.722,0-6.75-3.701-6.75-8.25c0-1.614,0.381-3.178,1.102-4.521 c0.065-0.122,0.218-0.166,0.338-0.102c0.122,0.065,0.167,0.217,0.102,0.338c-0.682,1.271-1.042,2.753-1.042,4.285 c0,4.273,2.804,7.75,6.25,7.75c1.167,0,2.305-0.402,3.292-1.163c0.11-0.084,0.267-0.064,0.351,0.045 c0.084,0.109,0.064,0.267-0.045,0.351C65.522,49.312,64.278,49.75,63,49.75z"/></g><g><path fill="#472b29" d="M67.821,47.116c-0.052,0-0.104-0.016-0.148-0.049c-0.111-0.082-0.135-0.238-0.053-0.349 c1.051-1.43,1.63-3.283,1.63-5.218c0-4.273-2.804-7.75-6.25-7.75c-1.523,0-2.99,0.688-4.132,1.937 c-0.093,0.102-0.251,0.111-0.353,0.016c-0.102-0.093-0.109-0.251-0.016-0.353c1.238-1.354,2.836-2.1,4.501-2.1 c3.722,0,6.75,3.701,6.75,8.25c0,2.041-0.614,3.999-1.728,5.514C67.973,47.081,67.897,47.116,67.821,47.116z"/></g><g><path fill="#1f212b" d="M63,37.458c-0.405,0-0.791,0.125-1.144,0.346c0.432,0.33,0.715,0.864,0.715,1.471 c0,1.003-0.768,1.817-1.714,1.817c-0.273,0-0.528-0.074-0.758-0.195C60.041,41.252,60,41.617,60,42c0,2.508,1.343,4.542,3,4.542 c1.657,0,3-2.034,3-4.542S64.657,37.458,63,37.458z"/></g><g><path fill="#ffce00" d="M56,51.5c0,1.5-3,5.5-5,5.5s-5-4-5-5.5c0-2.485,2.239-4.5,5-4.5S56,49.015,56,51.5z"/></g><g><ellipse cx="51" cy="49" fill="#fff3b7" rx="2" ry="1"/></g><g><path fill="#472b29" d="M51,57.25c-2.087,0-5.25-4.083-5.25-5.75c0-0.872,0.263-1.725,0.761-2.466 c0.078-0.115,0.233-0.144,0.347-0.068c0.114,0.077,0.145,0.232,0.068,0.347c-0.442,0.658-0.676,1.415-0.676,2.187 c0,1.415,2.944,5.25,4.75,5.25s4.75-3.835,4.75-5.25c0-2.343-2.131-4.25-4.75-4.25c-1.057,0-2.058,0.304-2.895,0.88 c-0.112,0.078-0.269,0.05-0.348-0.064c-0.078-0.114-0.049-0.269,0.064-0.348c0.92-0.633,2.019-0.968,3.178-0.968 c2.895,0,5.25,2.131,5.25,4.75C56.25,53.167,53.087,57.25,51,57.25z"/></g></svg>