<svg width="16" height="17" viewBox="0 0 16 17" fill="none" xmlns="http://www.w3.org/2000/svg">
<path d="M14.2857 0.119141H1.71429C1.25963 0.119141 0.823594 0.306977 0.502103 0.641327C0.180612 0.975678 0 1.42915 0 1.902L0 14.9763C0 15.4491 0.180612 15.9026 0.502103 16.237C0.823594 16.5713 1.25963 16.7591 1.71429 16.7591H6.61607V11.1019H4.36607V8.43914H6.61607V6.40965C6.61607 4.10123 7.9375 2.82611 9.96143 2.82611C10.9307 2.82611 11.9443 3.00588 11.9443 3.00588V5.2716H10.8275C9.72714 5.2716 9.38393 5.98177 9.38393 6.71014V8.43914H11.8404L11.4475 11.1019H9.38393V16.7591H14.2857C14.7404 16.7591 15.1764 16.5713 15.4979 16.237C15.8194 15.9026 16 15.4491 16 14.9763V1.902C16 1.42915 15.8194 0.975678 15.4979 0.641327C15.1764 0.306977 14.7404 0.119141 14.2857 0.119141V0.119141Z" fill="#4267B2"/>
</svg>
