<svg width="16" height="17" viewBox="0 0 16 17" fill="none" xmlns="http://www.w3.org/2000/svg">
<path d="M15.8444 6.80967H15.2V6.77514H8V10.1031H12.5212C11.8616 12.0405 10.0892 13.4311 8 13.4311C5.3492 13.4311 3.2 11.196 3.2 8.43914C3.2 5.68231 5.3492 3.44714 8 3.44714C9.2236 3.44714 10.3368 3.9272 11.1844 4.71136L13.4472 2.35805C12.0184 0.973189 10.1072 0.119141 8 0.119141C3.582 0.119141 0 3.84442 0 8.43914C0 13.0339 3.582 16.7591 8 16.7591C12.418 16.7591 16 13.0339 16 8.43914C16 7.88128 15.9448 7.33674 15.8444 6.80967Z" fill="#FFC107"/>
<path d="M0.920898 4.5666L3.5493 6.5713C4.2605 4.74007 5.9829 3.44714 7.9985 3.44714C9.2221 3.44714 10.3353 3.9272 11.1829 4.71136L13.4457 2.35805C12.0169 0.973189 10.1057 0.119141 7.9985 0.119141C4.9257 0.119141 2.2609 1.92333 0.920898 4.5666Z" fill="#FF3D00"/>
<path d="M7.99846 16.7585C10.0649 16.7585 11.9425 15.9361 13.3621 14.5987L10.8861 12.4197C10.0559 13.0763 9.04144 13.4314 7.99846 13.4305C5.91766 13.4305 4.15086 12.0507 3.48526 10.125L0.876465 12.2154C2.20046 14.9098 4.88926 16.7585 7.99846 16.7585Z" fill="#4CAF50"/>
<path d="M15.8434 6.80797H15.199V6.77344H7.99902V10.1014H12.5202C12.2047 11.0235 11.6364 11.8292 10.8854 12.419L10.8866 12.4181L13.3626 14.5971C13.1874 14.7627 15.999 12.5974 15.999 8.43744C15.999 7.87958 15.9438 7.33504 15.8434 6.80797Z" fill="#1976D2"/>
</svg>
